<?xml version="1.0" encoding="utf-8"?>
<!-- Generator: Adobe Illustrator 18.1.1, SVG Export Plug-In . SVG Version: 6.00 Build 0)  -->
<svg version="1.1" id="Layer_1" xmlns="http://www.w3.org/2000/svg" xmlns:xlink="http://www.w3.org/1999/xlink" x="0px" y="0px"
	 viewBox="0 0 720 720" enable-background="new 0 0 720 720" xml:space="preserve">
<g enable-background="new    ">
	<path d="M423.8,389.7c-5.4,2.6-12.5,3.9-21.2,3.9c-11.4,0-20.4-3.3-26.9-10c-6.5-6.7-9.8-15.6-9.8-26.8c0-11.9,3.7-21.5,11-28.9
		c7.3-7.4,16.9-11.1,28.6-11.1c7.3,0,13.4,0.9,18.3,2.7v16.1c-5-3-10.6-4.5-17-4.5c-7,0-12.6,2.2-16.9,6.6
		c-4.3,4.4-6.4,10.3-6.4,17.8c0,7.2,2,12.9,6.1,17.2s9.5,6.4,16.3,6.4c6.5,0,12.5-1.6,17.9-4.8V389.7z"/>
	<path d="M501.1,392.4h-16.8v-30.2h-30.8v30.2h-16.7v-74.3h16.7v29.6h30.8v-29.6h16.8V392.4z"/>
	<path d="M562.6,392.4h-44.5v-74.3h42.8v13.6h-26.1v16.5h24.3v13.6h-24.3v17h27.8V392.4z"/>
	<path d="M641.3,392.4h-18.2l-5.3-16.5h-26.4l-5.2,16.5H568l27-74.3h19.8L641.3,392.4z M614,363l-8-25c-0.6-1.9-1-4.1-1.2-6.7h-0.4
		c-0.2,2.2-0.6,4.3-1.3,6.5L595,363H614z"/>
	<path d="M667.3,366.8v25.6h-16.7v-74.3h26.2c18.7,0,28.1,7.9,28.1,23.7c0,7.5-2.7,13.5-8.1,18.1c-5.4,4.6-12.5,6.9-21.5,6.9H667.3z
		 M667.3,331v23.2h6.6c8.9,0,13.4-3.9,13.4-11.7c0-7.6-4.5-11.4-13.4-11.4H667.3z"/>
	<path d="M705.6,393.7c-2.7,0-4.9-0.8-6.7-2.5c-1.8-1.7-2.7-3.7-2.7-6.1c0-2.5,0.9-4.5,2.8-6.1c1.8-1.6,4.2-2.4,6.9-2.4
		c2.8,0,5.1,0.8,6.9,2.4c1.8,1.6,2.7,3.6,2.7,6.1c0,2.5-0.9,4.6-2.7,6.2C710.8,392.9,708.5,393.7,705.6,393.7z"/>
</g>
<g>
	<g>
		<path d="M213,212.2c55.7,0,100.8,45.5,100.8,101.2S268.7,414.1,213,414.1s-101.2-45.1-101.2-100.8S157.3,212.2,213,212.2z
			 M213,401.3c48.6,0,88-39.3,88-88s-39.3-88-88-88s-88,39.3-88,88S164.4,401.3,213,401.3z"/>
		<path d="M101.2,212.2c55.7,0,101.2,45.5,101.2,101.2s-45.5,100.8-101.2,100.8S0,369.1,0,313.4S45.5,212.2,101.2,212.2z
			 M101.2,401.3c48.6,0,88-39.3,88-88s-39.8-88-88-88s-88,39.3-88,88S52.6,401.3,101.2,401.3z"/>
	</g>
	<circle fill="#27AAE1" cx="156.9" cy="406.6" r="101.2"/>
	<path d="M156.9,305.9c55.7,0,101.2,45.5,101.2,101.2s-45.5,100.8-101.2,100.8S55.7,462.3,55.7,406.6S100.8,305.9,156.9,305.9z
		 M156.9,494.6c48.6,0,88-39.3,88-88s-39.3-88-88-88s-88,39.3-88,88S108.3,494.6,156.9,494.6z"/>
</g>
</svg>
