<?xml version="1.0" encoding="utf-8"?>
<!-- Generator: Adobe Illustrator 18.1.1, SVG Export Plug-In . SVG Version: 6.00 Build 0)  -->
<svg version="1.1" id="Layer_1" xmlns="http://www.w3.org/2000/svg" xmlns:xlink="http://www.w3.org/1999/xlink" x="0px" y="0px"
	 viewBox="0 0 720 720" enable-background="new 0 0 720 720" xml:space="preserve">
<g enable-background="new    ">
	<path d="M471.5,327.1H441v21.2H469v15.8H441v33.6h-19.5v-86.5h50V327.1z"/>
	<path d="M555.2,397.7h-21.2l-6.2-19.3H497l-6.1,19.3h-21.1l31.5-86.5h23.1L555.2,397.7z M523.3,363.5l-9.3-29.1
		c-0.7-2.2-1.2-4.8-1.4-7.8h-0.5c-0.2,2.5-0.7,5-1.5,7.5l-9.4,29.3H523.3z"/>
	<path d="M562,394.4v-19.3c3.5,2.9,7.3,5.1,11.4,6.6c4.1,1.5,8.2,2.2,12.4,2.2c2.5,0,4.6-0.2,6.4-0.7c1.8-0.4,3.4-1.1,4.6-1.8
		c1.2-0.8,2.1-1.7,2.7-2.8c0.6-1.1,0.9-2.2,0.9-3.5c0-1.7-0.5-3.2-1.4-4.5c-1-1.3-2.3-2.6-4-3.7c-1.7-1.1-3.7-2.2-5.9-3.3
		c-2.3-1-4.8-2.1-7.4-3.2c-6.8-2.8-11.8-6.3-15.1-10.3c-3.3-4.1-5-9-5-14.7c0-4.5,0.9-8.4,2.7-11.6c1.8-3.2,4.3-5.9,7.4-8
		c3.1-2.1,6.7-3.6,10.8-4.6c4.1-1,8.5-1.5,13-1.5c4.5,0,8.5,0.3,12,0.8c3.5,0.5,6.7,1.4,9.6,2.5v18c-1.4-1-3-1.9-4.7-2.7
		c-1.7-0.8-3.5-1.4-5.3-1.9c-1.8-0.5-3.6-0.9-5.4-1.1s-3.5-0.4-5.1-0.4c-2.2,0-4.2,0.2-6,0.6s-3.3,1-4.6,1.8
		c-1.2,0.8-2.2,1.7-2.9,2.7c-0.7,1.1-1,2.3-1,3.6c0,1.4,0.4,2.7,1.1,3.9c0.8,1.1,1.9,2.2,3.3,3.3c1.4,1,3.1,2,5.1,3c2,1,4.3,2,6.8,3
		c3.5,1.4,6.6,3,9.3,4.6c2.8,1.6,5.1,3.5,7.1,5.5c2,2.1,3.5,4.4,4.5,7c1,2.6,1.6,5.7,1.6,9.2c0,4.8-0.9,8.9-2.7,12.2
		c-1.8,3.3-4.3,5.9-7.5,8c-3.1,2-6.8,3.5-11,4.4c-4.2,0.9-8.6,1.3-13.2,1.3c-4.7,0-9.3-0.4-13.5-1.2S565.1,396,562,394.4z"/>
	<path d="M696,327.1h-24.7v70.7h-19.6v-70.7h-24.6v-15.9H696V327.1z"/>
	<path d="M703.1,399.2c-3.1,0-5.8-1-7.8-2.9c-2.1-1.9-3.1-4.3-3.1-7.1c0-2.9,1.1-5.3,3.2-7.1c2.2-1.9,4.8-2.8,8.1-2.8
		c3.3,0,5.9,0.9,8,2.8c2.1,1.9,3.1,4.2,3.1,7.1c0,2.9-1.1,5.3-3.2,7.2S706.5,399.2,703.1,399.2z"/>
</g>
<g>
	<g>
		<path d="M182.8,296.9c64.9,0,117.9,53,117.9,117.9s-53,117.4-117.9,117.4s-117.9-53-117.9-117.9S117.4,296.9,182.8,296.9z
			 M182.8,516.8c56.7,0,102.5-45.8,102.5-102.5s-45.8-102.5-102.5-102.5S80.3,357.7,80.3,414.3S126.2,516.8,182.8,516.8z"/>
		<path d="M117.9,187.7c64.9,0,117.9,53,117.9,117.9s-53,117.4-117.9,117.4S0,370.6,0,305.7S53,187.7,117.9,187.7z M117.9,408.2
			c56.7,0,102.5-45.8,102.5-102.5s-46.4-102.5-102.5-102.5S15.5,249,15.5,305.7S61.3,408.2,117.9,408.2z"/>
	</g>
	<circle fill="#27AAE1" cx="248.8" cy="305.2" r="116.9"/>
	<path d="M248.2,187.7c64.9,0,117.4,53,117.4,117.9s-52.5,117.4-117.4,117.4s-117.9-52.5-117.9-117.4S183.3,187.7,248.2,187.7z
		 M248.2,408.2c56.7,0,102.5-45.8,102.5-102.5s-45.8-102.5-102.5-102.5S145.8,249,145.8,305.7S191.6,408.2,248.2,408.2z"/>
</g>
</svg>
