<?xml version="1.0" encoding="utf-8"?>
<!-- Generator: Adobe Illustrator 18.1.1, SVG Export Plug-In . SVG Version: 6.00 Build 0)  -->
<svg version="1.1" id="Layer_1" xmlns="http://www.w3.org/2000/svg" xmlns:xlink="http://www.w3.org/1999/xlink" x="0px" y="0px"
	 viewBox="0 0 720 720" enable-background="new 0 0 720 720" xml:space="preserve">
<g enable-background="new    ">
	<path d="M437.3,388.9c-7.6,4.4-17.1,6.6-28.5,6.6c-12.6,0-22.5-3.5-29.7-10.4c-7.2-7-10.9-16.5-10.9-28.8c0-12.3,4-22.3,11.9-30
		c7.9-7.7,18.5-11.6,31.6-11.6c8.3,0,15.6,1.1,21.9,3.4v16.5c-6-3.5-13.4-5.2-22.1-5.2c-7.3,0-13.3,2.4-17.9,7.1
		c-4.6,4.7-6.9,11.1-6.9,19c0,8,2.1,14.2,6.2,18.6c4.1,4.4,9.7,6.6,16.7,6.6c4.2,0,7.6-0.6,10-1.8v-15.3H404v-14.1h33.2V388.9z"/>
	<path d="M485.5,395.5c-11.2,0-20.3-3.6-27.4-10.9c-7-7.3-10.6-16.8-10.6-28.5c0-12.4,3.6-22.3,10.7-30c7.2-7.6,16.6-11.4,28.5-11.4
		c11.2,0,20.2,3.7,27.1,11c6.9,7.3,10.3,16.9,10.3,28.9c0,12.3-3.6,22.2-10.7,29.7C506.3,391.7,497,395.5,485.5,395.5z M486.3,329.8
		c-6.2,0-11.1,2.3-14.7,6.9c-3.6,4.6-5.5,10.8-5.5,18.4c0,7.7,1.8,13.9,5.5,18.4c3.6,4.5,8.4,6.8,14.3,6.8c6.1,0,10.9-2.2,14.4-6.6
		s5.3-10.5,5.3-18.2c0-8.1-1.7-14.4-5.2-18.9C497,332,492.2,329.8,486.3,329.8z"/>
	<path d="M570.1,395.5c-11.2,0-20.3-3.6-27.4-10.9c-7-7.3-10.6-16.8-10.6-28.5c0-12.4,3.6-22.3,10.7-30c7.2-7.6,16.6-11.4,28.5-11.4
		c11.2,0,20.2,3.7,27.1,11c6.9,7.3,10.3,16.9,10.3,28.9c0,12.3-3.6,22.2-10.7,29.7C590.9,391.7,581.6,395.5,570.1,395.5z
		 M570.9,329.8c-6.2,0-11.1,2.3-14.7,6.9c-3.6,4.6-5.5,10.8-5.5,18.4c0,7.7,1.8,13.9,5.5,18.4c3.6,4.5,8.4,6.8,14.3,6.8
		c6.1,0,10.9-2.2,14.4-6.6s5.3-10.5,5.3-18.2c0-8.1-1.7-14.4-5.2-18.9C581.6,332,576.9,329.8,570.9,329.8z"/>
	<path d="M621.8,394.1v-78.2h27.7c27.8,0,41.6,12.7,41.6,38.1c0,12.2-3.8,21.9-11.4,29.2c-7.6,7.3-17.7,10.9-30.3,10.9H621.8z
		 M639.4,330.3v49.5h8.7c7.6,0,13.6-2.3,18-6.9c4.3-4.6,6.5-10.8,6.5-18.7c0-7.4-2.2-13.3-6.5-17.6c-4.3-4.3-10.3-6.4-18.1-6.4
		H639.4z"/>
	<path d="M704.5,395.5c-2.8,0-5.2-0.9-7.1-2.6s-2.8-3.9-2.8-6.4c0-2.6,1-4.8,2.9-6.4c1.9-1.7,4.4-2.5,7.3-2.5c2.9,0,5.4,0.8,7.2,2.5
		s2.8,3.8,2.8,6.4c0,2.7-1,4.8-2.9,6.5C710,394.6,707.5,395.5,704.5,395.5z"/>
</g>
<g>
	<g>
		<g>
			<path fill="#27AAE1" d="M209.3,320.5c-13.5-6.5-28.4-10.7-44.2-10.7s-30.7,3.7-43.7,10.2c4.2,29.3,20.5,54,44.2,69.3
				C188.8,374.4,205.1,349.3,209.3,320.5z"/>
		</g>
		<path d="M165.1,303.3c58.6,0,106.5,47.9,106.5,106.5s-47.9,106-106.5,106S58.6,467.9,58.6,409.3S106,303.3,165.1,303.3z
			 M165.1,501.9c51.2,0,92.6-41.4,92.6-92.6s-41.4-92.6-92.6-92.6s-92.6,41.4-92.6,92.6S114,501.9,165.1,501.9z"/>
		<path d="M224.2,204.7c58.6,0,106,47.9,106,106.5s-47.4,106-106,106s-106.5-47.4-106.5-106S165.6,204.7,224.2,204.7z M224.2,403.7
			c51.2,0,92.6-41.4,92.6-92.6s-41.4-92.6-92.6-92.6s-92.6,41.4-92.6,92.6S173,403.7,224.2,403.7z"/>
	</g>
	<circle fill="#27AAE1" cx="105.6" cy="309.8" r="105.6"/>
	<path d="M106.5,204.7c58.6,0,106.5,47.9,106.5,106.5s-47.9,106-106.5,106S0,369.8,0,311.2S47.9,204.7,106.5,204.7z M106.5,403.7
		c51.2,0,92.6-41.4,92.6-92.6s-41.9-92.6-92.6-92.6S14,260,14,311.2S55.3,403.7,106.5,403.7z"/>
</g>
</svg>
