<?xml version="1.0" encoding="utf-8"?>
<!-- Generator: Adobe Illustrator 18.1.1, SVG Export Plug-In . SVG Version: 6.00 Build 0)  -->
<svg version="1.1" id="Layer_1" xmlns="http://www.w3.org/2000/svg" xmlns:xlink="http://www.w3.org/1999/xlink" x="0px" y="0px"
	 viewBox="0 0 586.5 88.4" enable-background="new 0 0 586.5 88.4" xml:space="preserve">
<g>
	<g>
		<path fill="#FFFFFF" d="M136.4,71.7c-7.6,0-13.8-2.5-18.7-7.4c-4.8-5-7.2-11.4-7.2-19.4c0-8.4,2.4-15.2,7.3-20.4
			c4.9-5.2,11.3-7.8,19.4-7.8c7.6,0,13.8,2.5,18.4,7.5c4.7,5,7,11.5,7,19.7c0,8.4-2.4,15.1-7.3,20.3
			C150.6,69.2,144.3,71.7,136.4,71.7z M136.9,27c-4.2,0-7.6,1.6-10,4.7c-2.5,3.2-3.7,7.3-3.7,12.5c0,5.3,1.2,9.5,3.7,12.5
			c2.5,3.1,5.7,4.6,9.7,4.6c4.1,0,7.4-1.5,9.8-4.5c2.4-3,3.6-7.1,3.6-12.4c0-5.5-1.2-9.8-3.5-12.9C144.3,28.5,141,27,136.9,27z"/>
		<path fill="#FFFFFF" d="M219.6,70.8h-12.1l-22-33.5c-1.3-2-2.2-3.4-2.7-4.4h-0.1c0.2,1.9,0.3,4.8,0.3,8.6v29.3h-11.3V17.5h12.9
			L205.7,50c1,1.5,1.9,2.9,2.7,4.3h0.1c-0.2-1.2-0.3-3.7-0.3-7.3V17.5h11.3V70.8z"/>
		<path fill="#FFFFFF" d="M263.7,70.8h-32V17.5h30.7v9.8h-18.7v11.9h17.4v9.7h-17.4v12.2h20V70.8z"/>
		<path fill="#FFFFFF" d="M273.1,70.8V17.5h14.7c18.8,0,28.2,8.7,28.2,26c0,8.2-2.6,14.8-7.8,19.8c-5.2,5-12.2,7.5-20.9,7.5H273.1z
			 M279.4,23.2v42h8c7,0,12.4-1.9,16.3-5.6c3.9-3.7,5.8-9,5.8-15.9c0-13.6-7.3-20.5-21.8-20.5H279.4z"/>
		<path fill="#FFFFFF" d="M366.5,70.8h-6.9L354,55.9h-22.6L326,70.8h-6.9l20.4-53.3h6.5L366.5,70.8z M351.9,50.3l-8.4-22.7
			c-0.3-0.7-0.5-1.9-0.8-3.6h-0.1c-0.2,1.5-0.5,2.7-0.9,3.6l-8.3,22.7H351.9z"/>
		<path fill="#FFFFFF" d="M403.2,17.5l-17.6,33.6v19.7h-6.2V51.3l-17.1-33.7h7.1l11.9,24.1c0.1,0.3,0.6,1.4,1.3,3.3h0.1
			c0.2-0.8,0.7-1.9,1.4-3.3l12.5-24.1H403.2z"/>
		<path fill="#FFFFFF" d="M441.5,70.8h-31.7V17.5h12v43.5h19.7V70.8z"/>
		<path fill="#FFFFFF" d="M497.2,70.8h-13.1L480.3,59h-19l-3.8,11.9h-13L464,17.5h14.2L497.2,70.8z M477.5,49.7l-5.7-17.9
			c-0.4-1.3-0.7-2.9-0.9-4.8h-0.3c-0.1,1.6-0.4,3.1-0.9,4.6l-5.8,18.1H477.5z"/>
		<path fill="#FFFFFF" d="M503.8,70.8V17.5h19.4c5.9,0,10.5,1.1,13.7,3.3c3.2,2.2,4.8,5.3,4.8,9.2c0,2.9-1,5.4-2.9,7.5
			c-1.9,2.2-4.4,3.7-7.4,4.5v0.1c3.8,0.5,6.8,1.9,9.1,4.2c2.3,2.3,3.4,5.2,3.4,8.5c0,4.9-1.7,8.8-5.2,11.6
			c-3.5,2.9-8.3,4.3-14.3,4.3H503.8z M515.8,26.4V39h5.3c2.5,0,4.4-0.6,5.9-1.8c1.4-1.2,2.1-2.9,2.1-5c0-3.9-2.9-5.9-8.8-5.9H515.8z
			 M515.8,47.9v14h6.5c2.8,0,4.9-0.6,6.5-1.9s2.4-3,2.4-5.3c0-2.1-0.8-3.8-2.3-5c-1.5-1.2-3.7-1.8-6.5-1.8H515.8z"/>
		<path fill="#FFFFFF" d="M550.1,68.8V56.9c2.2,1.8,4.5,3.2,7,4.1c2.5,0.9,5.1,1.4,7.7,1.4c1.5,0,2.8-0.1,4-0.4
			c1.1-0.3,2.1-0.7,2.8-1.1c0.8-0.5,1.3-1.1,1.7-1.7c0.4-0.7,0.6-1.4,0.6-2.1c0-1-0.3-2-0.9-2.8c-0.6-0.8-1.4-1.6-2.4-2.3
			c-1-0.7-2.2-1.4-3.7-2s-2.9-1.3-4.6-2c-4.2-1.7-7.3-3.9-9.3-6.4c-2-2.5-3.1-5.5-3.1-9.1c0-2.8,0.6-5.2,1.7-7.2s2.6-3.6,4.6-4.9
			c1.9-1.3,4.1-2.2,6.7-2.8c2.5-0.6,5.2-0.9,8-0.9c2.8,0,5.2,0.2,7.4,0.5c2.1,0.3,4.1,0.8,5.9,1.5v11.1c-0.9-0.6-1.9-1.2-2.9-1.6
			c-1.1-0.5-2.1-0.9-3.3-1.2s-2.2-0.5-3.3-0.7c-1.1-0.1-2.1-0.2-3.1-0.2c-1.4,0-2.6,0.1-3.7,0.4c-1.1,0.3-2.1,0.6-2.8,1.1
			c-0.8,0.5-1.4,1-1.8,1.7c-0.4,0.7-0.6,1.4-0.6,2.2c0,0.9,0.2,1.7,0.7,2.4c0.5,0.7,1.1,1.4,2,2c0.9,0.6,1.9,1.3,3.2,1.9
			c1.2,0.6,2.6,1.2,4.2,1.9c2.1,0.9,4,1.8,5.7,2.8c1.7,1,3.2,2.1,4.4,3.4c1.2,1.3,2.1,2.7,2.8,4.3c0.6,1.6,1,3.5,1,5.7
			c0,3-0.6,5.5-1.7,7.5c-1.1,2-2.7,3.7-4.6,4.9c-1.9,1.3-4.2,2.1-6.7,2.7c-2.6,0.5-5.3,0.8-8.1,0.8c-2.9,0-5.7-0.2-8.3-0.7
			C554.4,70.5,552.1,69.8,550.1,68.8z"/>
	</g>
	<path fill="#28A8E0" d="M46.8,29.4c6.8,0.2,12.8,2.3,10,8.9c-6.4,15.4-7.7,14.4-10,14.4C44.8,52.8,25.1,28.8,46.8,29.4z"/>
	<g>
		<path fill="#FFFFFF" d="M46.8,27.9C63.5,27.9,77,41.5,77,58.2S63.5,88.4,46.8,88.4S16.6,74.8,16.6,58.2S30.2,27.9,46.8,27.9z
			 M46.8,84.4c14.5,0,26.3-11.8,26.3-26.3S61.3,31.9,46.8,31.9S20.6,43.7,20.6,58.2S32.3,84.4,46.8,84.4z"/>
		<path fill="#FFFFFF" d="M63.7,0c16.7,0,30.2,13.6,30.2,30.2S80.3,60.4,63.7,60.4S33.5,46.9,33.5,30.2S47,0,63.7,0z M63.7,56.5
			c14.5,0,26.3-11.8,26.3-26.3S78.2,3.9,63.7,3.9S37.4,15.7,37.4,30.2S49.2,56.5,63.7,56.5z"/>
		<path fill="#FFFFFF" d="M30.2,0c16.7,0,30.2,13.6,30.2,30.2S46.9,60.4,30.2,60.4S0,46.9,0,30.2C0,13.6,13.6,0,30.2,0z M30.2,56.5
			c14.5,0,26.3-11.8,26.3-26.3S44.7,3.9,30.2,3.9S3.9,15.7,3.9,30.2S15.7,56.5,30.2,56.5z"/>
	</g>
</g>
</svg>
